<mxfile host="65bd71144e">
    <diagram id="f5EianUy5xT8adn2XweF" name="Page-1">
        <mxGraphModel dx="1173" dy="796" grid="1" gridSize="10" guides="1" tooltips="1" connect="1" arrows="1" fold="1" page="1" pageScale="1" pageWidth="827" pageHeight="1169" background="#ffffff" math="0" shadow="1">
            <root>
                <mxCell id="0"/>
                <mxCell id="1" parent="0"/>
                <mxCell id="10" value="" style="rounded=0;whiteSpace=wrap;html=1;fontFamily=Comic Sans MS;labelBackgroundColor=#3E6957;fillColor=#3e6957;" parent="1" vertex="1">
                    <mxGeometry x="440" y="360" width="248" height="530" as="geometry"/>
                </mxCell>
                <mxCell id="7" value="" style="rounded=0;whiteSpace=wrap;html=1;fontFamily=Comic Sans MS;fontColor=none;noLabel=1;labelBackgroundColor=none;fillColor=#c6c5d4;" parent="1" vertex="1">
                    <mxGeometry x="131" y="360" width="210" height="530" as="geometry"/>
                </mxCell>
                <mxCell id="4" value="Ethereum" style="text;html=1;strokeColor=none;fillColor=none;align=center;verticalAlign=middle;whiteSpace=wrap;rounded=0;fontFamily=Comic Sans MS;fontSize=20;" parent="1" vertex="1">
                    <mxGeometry x="163.5" y="360" width="135" height="40" as="geometry"/>
                </mxCell>
                <mxCell id="17" value="Gnosis" style="text;html=1;strokeColor=none;fillColor=none;align=center;verticalAlign=middle;whiteSpace=wrap;rounded=0;fontFamily=Comic Sans MS;fontSize=20;fontColor=#FFFFFF;" parent="1" vertex="1">
                    <mxGeometry x="505.5" y="360" width="135" height="40" as="geometry"/>
                </mxCell>
                <mxCell id="33" value="" style="rounded=0;whiteSpace=wrap;html=1;fontFamily=Comic Sans MS;labelBackgroundColor=#3E6957;fillColor=#F3BA2F;" parent="1" vertex="1">
                    <mxGeometry x="780" y="360" width="180" height="530" as="geometry"/>
                </mxCell>
                <mxCell id="34" value="&lt;font color=&quot;#000000&quot;&gt;Binance&lt;/font&gt;" style="text;html=1;strokeColor=none;fillColor=none;align=center;verticalAlign=middle;whiteSpace=wrap;rounded=0;fontFamily=Comic Sans MS;fontSize=20;fontColor=#FFFFFF;" parent="1" vertex="1">
                    <mxGeometry x="795.5" y="360" width="135" height="40" as="geometry"/>
                </mxCell>
                <mxCell id="31" value="Arbitrary&lt;br&gt;Message&lt;br&gt;Bridge" style="endArrow=classic;startArrow=classic;html=1;fontFamily=Comic Sans MS;entryX=0;entryY=0.5;entryDx=0;entryDy=0;exitX=1;exitY=0.5;exitDx=0;exitDy=0;dashed=1;strokeWidth=2;labelBackgroundColor=none;" parent="1" source="30" target="28" edge="1">
                    <mxGeometry x="-0.0071" y="26" width="50" height="50" relative="1" as="geometry">
                        <mxPoint x="383" y="740" as="sourcePoint"/>
                        <mxPoint x="453" y="880" as="targetPoint"/>
                        <mxPoint as="offset"/>
                    </mxGeometry>
                </mxCell>
                <mxCell id="25" value="Ethereum&lt;br&gt;Omnibridge" style="endArrow=classic;startArrow=classic;html=1;fontFamily=Comic Sans MS;entryX=0;entryY=0.5;entryDx=0;entryDy=0;exitX=1;exitY=0.5;exitDx=0;exitDy=0;dashed=1;strokeWidth=2;labelBackgroundColor=none;" parent="1" source="24" target="22" edge="1">
                    <mxGeometry x="-0.0233" y="20" width="50" height="50" relative="1" as="geometry">
                        <mxPoint x="383" y="534" as="sourcePoint"/>
                        <mxPoint x="453" y="674" as="targetPoint"/>
                        <mxPoint as="offset"/>
                    </mxGeometry>
                </mxCell>
                <mxCell id="6" value="xDai &lt;br&gt;Bridge" style="endArrow=classic;startArrow=classic;html=1;fontFamily=Comic Sans MS;entryX=0;entryY=0.5;entryDx=0;entryDy=0;exitX=1;exitY=0.5;exitDx=0;exitDy=0;dashed=1;strokeWidth=2;labelBackgroundColor=none;" parent="1" source="18" target="15" edge="1">
                    <mxGeometry x="-0.0213" y="20" width="50" height="50" relative="1" as="geometry">
                        <mxPoint x="383" y="460" as="sourcePoint"/>
                        <mxPoint x="453" y="600" as="targetPoint"/>
                        <mxPoint as="offset"/>
                    </mxGeometry>
                </mxCell>
                <mxCell id="41" value="" style="group" vertex="1" connectable="0" parent="1">
                    <mxGeometry x="141" y="430" width="180" height="60" as="geometry"/>
                </mxCell>
                <mxCell id="18" value="" style="rounded=0;whiteSpace=wrap;html=1;fontFamily=Comic Sans MS;" parent="41" vertex="1">
                    <mxGeometry width="180" height="60" as="geometry"/>
                </mxCell>
                <mxCell id="19" value="xDai Bridge" style="text;html=1;strokeColor=none;fillColor=none;align=center;verticalAlign=middle;whiteSpace=wrap;rounded=0;fontFamily=Comic Sans MS;fontSize=15;" parent="41" vertex="1">
                    <mxGeometry x="10.588235294117647" y="15" width="158.8235294117647" height="30" as="geometry"/>
                </mxCell>
                <mxCell id="42" value="" style="group" vertex="1" connectable="0" parent="1">
                    <mxGeometry x="141" y="504" width="180" height="60" as="geometry"/>
                </mxCell>
                <mxCell id="24" value="" style="rounded=0;whiteSpace=wrap;html=1;fontFamily=Comic Sans MS;" parent="42" vertex="1">
                    <mxGeometry width="180" height="60" as="geometry"/>
                </mxCell>
                <mxCell id="26" value="ERC20 Bridge &lt;br&gt;&lt;font style=&quot;font-size: 12px&quot;&gt;(Omnibridge)&lt;/font&gt;" style="text;html=1;strokeColor=none;fillColor=none;align=center;verticalAlign=middle;whiteSpace=wrap;rounded=0;fontFamily=Comic Sans MS;fontSize=15;" parent="42" vertex="1">
                    <mxGeometry x="10.588235294117647" y="14" width="158.8235294117647" height="30" as="geometry"/>
                </mxCell>
                <mxCell id="43" value="" style="group" vertex="1" connectable="0" parent="1">
                    <mxGeometry x="141" y="710" width="180" height="60" as="geometry"/>
                </mxCell>
                <mxCell id="30" value="" style="rounded=0;whiteSpace=wrap;html=1;fontFamily=Comic Sans MS;" parent="43" vertex="1">
                    <mxGeometry width="180" height="60" as="geometry"/>
                </mxCell>
                <mxCell id="32" value="&lt;span style=&quot;font-size: 15px&quot;&gt;Data Bridge&lt;br&gt;&lt;/span&gt;(Ethereum)" style="text;html=1;strokeColor=none;fillColor=none;align=center;verticalAlign=middle;whiteSpace=wrap;rounded=0;fontFamily=Comic Sans MS;" parent="43" vertex="1">
                    <mxGeometry x="10" y="14" width="160" height="30" as="geometry"/>
                </mxCell>
                <mxCell id="44" value="" style="group" vertex="1" connectable="0" parent="1">
                    <mxGeometry x="462" y="430" width="206" height="60" as="geometry"/>
                </mxCell>
                <mxCell id="15" value="" style="rounded=0;whiteSpace=wrap;html=1;fontFamily=Comic Sans MS;fillColor=#e1d5e7;strokeColor=#9673a6;" parent="44" vertex="1">
                    <mxGeometry width="206" height="60" as="geometry"/>
                </mxCell>
                <mxCell id="16" value="xDai Minter &lt;br&gt;&lt;font style=&quot;font-size: 12px&quot;&gt;(native asset used for gas)&lt;/font&gt;" style="text;html=1;strokeColor=none;fillColor=none;align=center;verticalAlign=middle;whiteSpace=wrap;rounded=0;fontFamily=Comic Sans MS;fontSize=15;" parent="44" vertex="1">
                    <mxGeometry x="13.398373983739837" y="14" width="184.22764227642276" height="30" as="geometry"/>
                </mxCell>
                <mxCell id="45" value="" style="group" vertex="1" connectable="0" parent="1">
                    <mxGeometry x="462" y="505" width="206" height="60" as="geometry"/>
                </mxCell>
                <mxCell id="22" value="" style="rounded=0;whiteSpace=wrap;html=1;fontFamily=Comic Sans MS;fillColor=#e1d5e7;strokeColor=#9673a6;" parent="45" vertex="1">
                    <mxGeometry width="205.99999999999997" height="60" as="geometry"/>
                </mxCell>
                <mxCell id="23" value="Ethereum Bridged Tokens&lt;br&gt;&lt;font style=&quot;font-size: 12px&quot;&gt;(Omnibridge)&lt;/font&gt;" style="text;html=1;strokeColor=none;fillColor=none;align=center;verticalAlign=middle;whiteSpace=wrap;rounded=0;fontFamily=Comic Sans MS;fontSize=15;" parent="45" vertex="1">
                    <mxGeometry x="5.024390243902438" y="14" width="192.60162601626016" height="30" as="geometry"/>
                </mxCell>
                <mxCell id="39" value="BSC&lt;br&gt;Omnibridge" style="endArrow=classic;startArrow=classic;html=1;fontFamily=Comic Sans MS;entryX=0;entryY=0.5;entryDx=0;entryDy=0;exitX=1;exitY=0.5;exitDx=0;exitDy=0;strokeWidth=2;dashed=1;labelBackgroundColor=none;" parent="1" source="38" target="36" edge="1">
                    <mxGeometry x="-0.0408" y="22" width="50" height="50" relative="1" as="geometry">
                        <mxPoint x="702.6035714285714" y="633" as="sourcePoint"/>
                        <mxPoint x="773.3535714285714" y="773" as="targetPoint"/>
                        <mxPoint as="offset"/>
                    </mxGeometry>
                </mxCell>
                <mxCell id="46" value="" style="group" vertex="1" connectable="0" parent="1">
                    <mxGeometry x="465" y="603" width="203" height="60" as="geometry"/>
                </mxCell>
                <mxCell id="38" value="" style="rounded=0;whiteSpace=wrap;html=1;fontFamily=Comic Sans MS;fillColor=#fff2cc;strokeColor=#d6b656;" parent="46" vertex="1">
                    <mxGeometry width="203" height="60" as="geometry"/>
                </mxCell>
                <mxCell id="40" value="&lt;font&gt;&lt;span style=&quot;font-size: 15px&quot;&gt;BSC Bridged Tokens&lt;/span&gt;&lt;br&gt;&lt;font style=&quot;font-size: 12px&quot;&gt;(Omnibridge)&lt;/font&gt;&lt;br&gt;&lt;/font&gt;" style="text;html=1;strokeColor=none;fillColor=none;align=center;verticalAlign=middle;whiteSpace=wrap;rounded=0;fontFamily=Comic Sans MS;" parent="46" vertex="1">
                    <mxGeometry x="8.458333333333314" y="15" width="186.08333333333334" height="30" as="geometry"/>
                </mxCell>
                <mxCell id="47" value="" style="group" vertex="1" connectable="0" parent="1">
                    <mxGeometry x="462" y="710" width="206" height="60" as="geometry"/>
                </mxCell>
                <mxCell id="28" value="" style="rounded=0;whiteSpace=wrap;html=1;fontFamily=Comic Sans MS;" parent="47" vertex="1">
                    <mxGeometry width="206" height="60" as="geometry"/>
                </mxCell>
                <mxCell id="29" value="&lt;span style=&quot;font-size: 15px&quot;&gt;Data Bridge&amp;nbsp;&lt;br&gt;&lt;/span&gt;(Arbitrary Message Bridge)" style="text;html=1;strokeColor=none;fillColor=none;align=center;verticalAlign=middle;whiteSpace=wrap;rounded=0;fontFamily=Comic Sans MS;" parent="47" vertex="1">
                    <mxGeometry x="5.024390243902439" y="14" width="200.97560975609755" height="30" as="geometry"/>
                </mxCell>
                <mxCell id="48" value="" style="group" vertex="1" connectable="0" parent="1">
                    <mxGeometry x="803.36" y="603" width="146.64" height="61" as="geometry"/>
                </mxCell>
                <mxCell id="36" value="" style="rounded=0;whiteSpace=wrap;html=1;fontFamily=Comic Sans MS;" parent="48" vertex="1">
                    <mxGeometry width="146.64000000000001" height="61" as="geometry"/>
                </mxCell>
                <mxCell id="37" value="&lt;font&gt;&lt;span style=&quot;font-size: 15px&quot;&gt;ERC20 Bridge&lt;/span&gt;&lt;br&gt;&lt;font style=&quot;font-size: 12px&quot;&gt;(Omnibridge)&lt;/font&gt;&lt;br&gt;&lt;/font&gt;" style="text;html=1;strokeColor=none;fillColor=none;align=center;verticalAlign=middle;whiteSpace=wrap;rounded=0;fontFamily=Comic Sans MS;" parent="48" vertex="1">
                    <mxGeometry x="4.767937947082692" y="15.25" width="137.10243902439026" height="30.5" as="geometry"/>
                </mxCell>
                <mxCell id="49" value="" style="group" vertex="1" connectable="0" parent="1">
                    <mxGeometry x="800" y="710" width="150" height="60" as="geometry"/>
                </mxCell>
                <mxCell id="50" value="" style="rounded=0;whiteSpace=wrap;html=1;fontFamily=Comic Sans MS;" vertex="1" parent="49">
                    <mxGeometry width="150" height="60" as="geometry"/>
                </mxCell>
                <mxCell id="51" value="&lt;span style=&quot;font-size: 15px&quot;&gt;Data Bridge&amp;nbsp;&lt;br&gt;&lt;/span&gt;(BSC)" style="text;html=1;strokeColor=none;fillColor=none;align=center;verticalAlign=middle;whiteSpace=wrap;rounded=0;fontFamily=Comic Sans MS;" vertex="1" parent="49">
                    <mxGeometry x="3.658536585365854" y="14" width="146.34146341463415" height="30" as="geometry"/>
                </mxCell>
                <mxCell id="52" value="Arbitrary&lt;br&gt;Message&lt;br&gt;Bridge" style="endArrow=classic;startArrow=classic;html=1;fontFamily=Comic Sans MS;dashed=1;strokeWidth=2;entryX=0;entryY=0.5;entryDx=0;entryDy=0;labelBackgroundColor=none;" edge="1" parent="1" target="51">
                    <mxGeometry x="-0.0394" y="27" width="50" height="50" relative="1" as="geometry">
                        <mxPoint x="670" y="740" as="sourcePoint"/>
                        <mxPoint x="780" y="740" as="targetPoint"/>
                        <mxPoint as="offset"/>
                    </mxGeometry>
                </mxCell>
            </root>
        </mxGraphModel>
    </diagram>
</mxfile>